<svg version="1.1" id="Ebene_1" xmlns="http://www.w3.org/2000/svg" xmlns:xlink="http://www.w3.org/1999/xlink" x="0px" y="0px"
	 width="1190.55px" height="841.89px" viewBox="0 0 1190.55 841.89" enable-background="new 0 0 1190.55 841.89"
	 xml:space="preserve">
<g xmlns="http://www.w3.org/2000/svg">
  <path d="M534.97,515.028c-8.18-8.344-8.052-21.739,0.292-29.919l88.289-86.565l-0.136-0.14l-10.398,10.203   c-28.296-43.388-60.565-90.395-80.725-111.846c-14.146-15.053-35.452-23.346-59.985-23.346c-49.973,0-90.624,41.562-90.624,92.648   c0,20.466,6.522,39.951,18.349,55.868c-11.83,15.921-18.349,35.406-18.349,55.88c0,51.078,40.651,92.633,90.624,92.633   c21.338,0,42.072-7.744,58.386-21.809l33.006-32.367c-3.938,3.344-8.761,5.099-13.625,5.102   C544.59,521.371,539.11,519.251,534.97,515.028z M472.307,528.132c-26.642,0-48.314-22.575-48.314-50.319   c0-15.48,6.736-29.892,18.478-39.543l19.905-16.353l-19.913-16.345c-11.737-9.632-18.47-24.035-18.47-39.508   c0-27.756,21.673-50.331,48.314-50.331c12.551,0,23.175,3.646,29.152,10.01c19.291,20.524,52.4,69.345,80.739,113.114   l-79.61,78.137C493.921,524.283,483.464,528.132,472.307,528.132z" />
  <path d="M662.16,486.164c0.817,2.172,2.031,4.125,3.572,5.807C664.689,490.273,663.491,488.328,662.16,486.164z"/>
  <path d="M622.504,458.81l-16.943,16.613c7.682,12.181,14.282,22.79,19.232,30.783c-3.899-7.978-6.149-16.901-6.149-26.362   C618.644,472.438,620.049,465.371,622.504,458.81z"/>
  <path d="M563.698,516.27c0.389-0.33,0.816-0.592,1.187-0.953l40.676-39.894c-0.027-0.038-0.055-0.081-0.082-0.128L563.698,516.27z"/>
  <path d="M650.948,426.455l-27.397-27.911l-88.289,86.565c-8.344,8.18-8.472,21.575-0.292,29.919   c4.141,4.223,9.62,6.343,15.104,6.343c4.864-0.003,9.687-1.758,13.625-5.102l41.78-40.975c0.027,0.047,0.055,0.09,0.082,0.128   l16.943-16.613C627.715,444.858,637.899,433.335,650.948,426.455z"/>
  <path d="M631.012,516.293c-1.572-2.561-3.682-5.981-6.219-10.087C626.536,509.782,628.618,513.152,631.012,516.293z"/>
  <path d="M670.449,499.688c-0.451-0.747-2.102-3.456-4.717-7.717c-1.541-1.682-2.755-3.635-3.572-5.807   c-6.087-9.857-15.076-24.326-25.685-41.057l-13.972,13.702c-2.455,6.562-3.86,13.629-3.86,21.034c0,9.461,2.25,18.385,6.149,26.362   c2.537,4.105,4.646,7.526,6.219,10.087c5.95,7.818,13.741,14.131,22.75,18.299l27.678-16.828L670.449,499.688z"/>
  <path d="M653.054,428.599l-16.672,16.364c0.031,0.047,0.062,0.098,0.094,0.145l22.595-22.159c-2.802,0.984-5.526,2.137-8.122,3.507   L653.054,428.599z"/>
  <path d="M653.054,428.599l-2.105-2.144c-13.049,6.88-23.233,18.403-28.444,32.354l13.972-13.702   c-0.031-0.047-0.062-0.098-0.094-0.145L653.054,428.599z"/>
  <path d="M697.021,479.844c0,9.943-8.091,18.03-18.034,18.03c-5.262,0-9.955-2.3-13.255-5.903c2.615,4.261,4.266,6.97,4.717,7.717   l10.99,18.076l-27.678,16.828c7.687,3.557,16.213,5.596,25.226,5.596c33.273,0,60.344-27.07,60.344-60.344H697.021z"/>
  <path d="M689.97,332.67l-66.419,65.874l27.397,27.911c2.596-1.37,5.32-2.522,8.122-3.507l59.456-59.056L689.97,332.67z"/>
</g>
</svg>
