<svg version="1.1" xmlns="http://www.w3.org/2000/svg" xmlns:xlink="http://www.w3.org/1999/xlink" x="0px" y="0px" width="24.022px" height="19.576px" viewBox="151 109 24.022 19.576" enable-background="new 151 109 24.022 19.576"
	 xml:space="preserve">
  <path d="M175.022,111.316c-0.884,0.393-1.831,0.66-2.829,0.778c1.018-0.61,1.796-1.58,2.167-2.732c-0.955,0.567-2.009,0.978-3.133,1.2c-0.898-0.962-2.177-1.562-3.596-1.562c-2.72,0-4.928,2.214-4.928,4.944c0,0.385,0.044,0.765,0.126,1.126c-4.092-0.207-7.725-2.174-10.155-5.166c-0.423,0.728-0.666,1.577-0.666,2.485c0,1.715,0.87,3.229,2.191,4.114c-0.808-0.026-1.566-0.25-2.232-0.621v0.063c0,2.393,1.7,4.392,3.953,4.846c-0.414,0.112-0.848,0.173-1.299,0.173c-0.317,0-0.625-0.032-0.927-0.092c0.628,1.967,2.446,3.396,4.602,3.435c-1.687,1.326-3.811,2.112-6.12,2.112c-0.397,0-0.79-0.024-1.175-0.067c2.181,1.405,4.77,2.224,7.552,2.224c9.064,0,14.02-7.533,14.02-14.066l-0.017-0.64C173.527,113.179,174.364,112.308,175.022,111.316z"/>
</svg>
