<?xml version="1.0" encoding="utf-8"?>
<!-- Generator: Adobe Illustrator 16.0.4, SVG Export Plug-In . SVG Version: 6.00 Build 0)  -->
<!DOCTYPE svg PUBLIC "-//W3C//DTD SVG 1.1//EN" "http://www.w3.org/Graphics/SVG/1.1/DTD/svg11.dtd">
<svg version="1.1" id="Layer_1" xmlns="http://www.w3.org/2000/svg" xmlns:xlink="http://www.w3.org/1999/xlink" x="0px" y="0px"
	 width="24px" height="24px" viewBox="268.5 0 24 24" enable-background="new 268.5 0 24 24" xml:space="preserve">
<path d="M280.5,0c-6.627,0-12,5.373-12,12s5.373,12,12,12s12-5.373,12-12C292.5,5.372,287.127,0,280.5,0z M283.602,11.999
	L281.635,12l-0.001,7.2h-2.699V12h-1.8V9.519l1.8-0.001l-0.003-1.461c0-2.025,0.549-3.256,2.933-3.256h1.986v2.482h-1.242
	c-0.929,0-0.974,0.346-0.974,0.993l-0.003,1.242h2.232L283.602,11.999z"/>
</svg>
