<svg version="1.1" id="Ebene_1" xmlns="http://www.w3.org/2000/svg" xmlns:xlink="http://www.w3.org/1999/xlink" x="0px" y="0px" width="410px" height="420px" viewBox="0 0 410 420" enable-background="new 0 0 410 420" xml:space="preserve">
  <path stroke-miterlimit="10" d="M333.148,158.373l-0.107-0.201  c-0.269-0.947-0.557-1.94-0.771-2.641l-17.152-56.073c-0.479-1.562-2.145-2.842-3.704-2.842l-6.056-0.002  c-1.527,0-3.15,1.228-3.667,2.746c-0.012,0.032-0.029,0.062-0.039,0.095l-8.727,34.152l-9.142-34.148  c-0.479-1.562-2.145-2.842-3.704-2.842l-6.056-0.002c-1.527,0-3.15,1.228-3.667,2.746c-0.012,0.032-0.029,0.062-0.039,0.095  l-17.151,55.923c-0.479,1.562-0.882,2.875-0.895,2.917c-0.012,0.042-0.165,0.624-0.338,1.293c-0.003,0.01,0,0.025-0.002,0.035  c-0.204,0.804-0.401,1.618-0.587,2.449h2.825h7.056h2.845l12.944-42.369l10.118,42.292h5.042h0.268h5.69l10.216-42.292  l12.987,42.369h2.825h7.054h2.845C333.778,160.804,333.481,159.562,333.148,158.373z" stroke-width="0.2"/>
  <path stroke="#FFFFFF" stroke-width="1.0263" stroke-miterlimit="10" d="M244.169,158.374l-0.106-0.201   c-0.27-0.947-0.559-1.94-0.772-2.641l-17.152-56.073c-0.479-1.562-2.145-2.841-3.704-2.841l-6.056-0.003   c-1.527-0.001-3.15,1.228-3.667,2.746c-0.012,0.032-0.029,0.062-0.039,0.094l-17.151,55.923c-0.479,1.562-0.882,2.875-0.895,2.917   c-0.012,0.042-0.165,0.624-0.338,1.294c-0.003,0.01,0,0.024-0.002,0.035c-0.204,0.803-0.401,1.617-0.587,2.448h2.825h7.056h2.845   l12.944-42.369l12.987,42.369h2.825h7.054h2.845C244.799,160.804,244.502,159.562,244.169,158.374z"/>
  <line stroke="#000000" stroke-width="11" stroke-miterlimit="10" x1="202.733" y1="157.369" x2="228.797" y2="133.92"/>
  <path stroke="#FFFFFF" stroke-width="1.0263" stroke-miterlimit="10" d="M103.592,239.926l-0.105-0.2   c-0.27-0.948-0.559-1.94-0.773-2.641l-17.152-56.074c-0.479-1.562-2.145-2.841-3.703-2.841l-6.057-0.002   c-1.527-0.001-3.15,1.228-3.666,2.746c-0.012,0.033-0.029,0.063-0.039,0.094L54.943,236.93c-0.479,1.562-0.881,2.875-0.895,2.917   c-0.012,0.042-0.164,0.624-0.338,1.294c-0.002,0.01,0,0.024-0.002,0.035c-0.203,0.803-0.4,1.617-0.586,2.448h2.824h7.057h2.844   l12.945-42.369l12.986,42.369h2.826h7.053h2.846C104.223,242.357,103.926,241.115,103.592,239.926z"/>
  <line stroke="#000000" stroke-width="11" stroke-miterlimit="10" x1="62.156" y1="238.922" x2="88.221" y2="215.475"/>
  <path stroke="#FFFFFF" stroke-width="1.0263" stroke-miterlimit="10" d="M309.372,239.926l-0.106-0.2   c-0.27-0.948-0.559-1.94-0.772-2.641l-17.152-56.074c-0.479-1.562-2.145-2.841-3.704-2.841l-6.056-0.002   c-1.527-0.001-3.15,1.228-3.667,2.746c-0.012,0.033-0.029,0.063-0.039,0.094l-17.151,55.923c-0.479,1.562-0.882,2.875-0.895,2.917   c-0.012,0.042-0.165,0.624-0.338,1.294c-0.003,0.01,0,0.024-0.002,0.035c-0.204,0.803-0.401,1.617-0.587,2.448h2.825h7.056h2.845   l12.944-42.369l12.987,42.369h2.825h7.054h2.845C310.002,242.357,309.705,241.115,309.372,239.926z"/>
  <line stroke="#000000" stroke-width="11" stroke-miterlimit="10" x1="267.937" y1="238.922" x2="294" y2="215.475"/>
  <path stroke="#FFFFFF" stroke-width="0.9923" stroke-miterlimit="10" d="M125.307,116.919c0-1.458,0-3.616,0-6.475  c-2.854,0-7.169,0-12.944,0c0,2.858,0,7.175,0,12.949c4.315,0,10.789,0,19.409,0c1.749,0,3.264,0.612,4.548,1.838  c1.226,1.282,1.838,2.799,1.838,4.55c0,5.774,0,14.381,0,25.813c0,1.808-0.612,3.324-1.838,4.55  c-1.284,1.284-2.799,1.926-4.548,1.926c-5.768,0-14.364,0-25.797,0c-1.81,0-3.325-0.642-4.55-1.925  c-1.285-1.227-1.926-2.743-1.926-4.551c0-2.857,0-7.146,0-12.863c2.858,0,7.145,0,12.863,0c0,1.399,0,3.559,0,6.475  c2.914,0,7.232,0,12.944,0c0-2.916,0-7.233,0-12.95c-4.312,0-10.756,0-19.332,0c-1.81,0-3.325-0.611-4.55-1.836  c-1.285-1.283-1.926-2.83-1.926-4.639c0-2.858,0-6.445,0-10.765c0-4.314,0-9.331,0-15.048c0-1.75,0.641-3.267,1.926-4.55  c1.225-1.226,2.74-1.839,4.55-1.839c5.715,0,14.32,0,25.797,0c1.749,0,3.264,0.614,4.548,1.839c1.226,1.283,1.838,2.8,1.838,4.55  c0,2.916,0,7.233,0,12.95C135.297,116.919,131.014,116.919,125.307,116.919z"/>
  <path d="M187.464,149.208c0,5.717,0,10.006,0,12.863c-12.894,0-21.497,0-25.812,0c-4.785,0-7.994,0-9.625,0  c-1.636,0-2.713,0-3.238,0c0-16.157,0-29.604,0-40.337c0-10.734,0-18.783,0-24.152c6.475,0,10.763,0,12.863,0  c0,25.785,0,42.994,0,51.626C173.142,149.208,181.746,149.208,187.464,149.208z"/>
  <path d="M250.46,179.61c0,11.348,0,19.89,0,25.621c0,5.677,0,9.932,0,12.769c0,11.409,0,19.949,0,25.624  c-5.675-0.001-9.931-0.001-12.768-0.001c0-11.407,0-19.947,0-25.623c-5.676,0-9.961,0-12.856,0c0,11.408,0,19.949,0,25.623  c-5.674,0-9.93,0-12.767,0c0-5.674,0-10.653,0-14.938s0-7.847,0-10.685c0-6.427,0-10.683,0-12.769c0-12.854,0-21.396,0-25.622  c6.428,0,10.684,0,12.767,0c0,12.798,0,21.337,0,25.622c6.428,0,10.712,0,12.856,0c0-12.854,0-21.396,0-25.622  C243.367,179.609,247.622,179.61,250.46,179.61z"/><path d="M152.639,230.854c0,5.676,0,9.932,0,12.769c-12.798,0-21.34,0.001-25.622,0.001c-4.744,0-7.927,0-9.548,0  c-1.623,0-2.691,0-3.213,0c0-16.04,0-29.388,0-40.042s0-18.645,0-23.973c6.428,0,10.679,0,12.761,0c0,25.596,0,42.677,0,51.246  C138.422,230.854,146.963,230.854,152.639,230.854z"/>
  <path d="M200.69,185.951c0,5.731,0,14.273,0,25.623c0,1.795-0.608,3.33-1.824,4.603c-1.275,1.217-2.78,1.824-4.517,1.824  c-4.285,0-10.713,0-19.281,0c0,5.676,0,14.216,0,25.623c-2.838,0-7.096,0-12.769,0c0-2.837,0-6.397,0-10.683  c0-4.227,0-9.207,0-14.94c0-2.836,0-7.093,0-12.769c0-2.894,0-7.179,0-12.854c0-2.836,0-7.093,0-12.768c2.837,0,7.094,0,12.769,0  c4.283,0,10.711,0,19.281,0c1.736,0,3.241,0.607,4.517,1.824C200.082,182.708,200.69,184.214,200.69,185.951z M175.068,205.232  c2.893,0,7.18,0,12.855,0c0-0.521,0-1.272,0-2.258c0-2.373,0-5.906,0-10.597c-2.84,0-7.124,0-12.855,0  C175.068,195.217,175.068,199.501,175.068,205.232z"/>
  <path stroke="#FFFFFF" stroke-width="0.9292" stroke-miterlimit="10" d="M343.835,198.806c0-1.448,0-3.59,0-6.427  c-2.838,0-7.121,0-12.854,0c0,2.837,0,7.122,0,12.854c4.283,0,10.711,0,19.282,0c1.738,0,3.242,0.608,4.517,1.824  c1.216,1.274,1.822,2.779,1.822,4.517c0,5.732,0,14.275,0,25.623c0,1.795-0.606,3.301-1.822,4.517  c-1.274,1.274-2.778,1.911-4.517,1.911c-5.732,0-14.275,0-25.624,0c-1.797,0.001-3.3-0.637-4.516-1.911  c-1.275-1.215-1.912-2.721-1.912-4.517c0-2.836,0-7.092,0-12.768c2.838,0,7.093,0,12.77,0c0,1.39,0,3.533,0,6.427  c2.894,0,7.179,0,12.854,0c0-2.894,0-7.179,0-12.854c-4.284,0-10.684,0-19.195,0c-1.797,0-3.3-0.607-4.516-1.823  c-1.275-1.273-1.912-2.809-1.912-4.604c0-2.836,0-6.397,0-10.684c0-4.284,0-9.263,0-14.938c0-1.737,0.637-3.243,1.912-4.517  c1.216-1.217,2.719-1.823,4.516-1.824c5.674,0,14.215,0,25.624,0c1.738,0,3.242,0.607,4.517,1.824  c1.216,1.273,1.822,2.778,1.822,4.516c0,2.896,0,7.18,0,12.855C353.766,198.806,349.51,198.806,343.835,198.806z"/>
</svg>
